<!DOCTYPE svg PUBLIC "-//W3C//DTD SVG 1.1//EN" "http://www.w3.org/Graphics/SVG/1.1/DTD/svg11.dtd">
<!-- Uploaded to: SVG Repo, www.svgrepo.com, Transformed by: SVG Repo Mixer Tools -->
<svg width="100px" height="100px" viewBox="0 0 1024.00 1024.00" xmlns="http://www.w3.org/2000/svg" fill="#1a181b" style="--darkreader-inline-fill: var(--darkreader-background-72fa78, #3b753c);" data-darkreader-inline-fill="" stroke="#1a181b" stroke-width="0.01024">
<g id="SVGRepo_bgCarrier" stroke-width="0"/>
<g id="SVGRepo_tracerCarrier" stroke-linecap="round" stroke-linejoin="round" stroke="#1a181b" stroke-width="102.4" style="--darkreader-inline-stroke: var(--darkreader-text-cccccc, #e8d7ba);" data-darkreader-inline-stroke="">
<path fill="#3c3c3b" d="M195.2 195.2a64 64 0 0 1 90.496 0L512 421.504 738.304 195.2a64 64 0 0 1 90.496 90.496L602.496 512 828.8 738.304a64 64 0 0 1-90.496 90.496L512 602.496 285.696 828.8a64 64 0 0 1-90.496-90.496L421.504 512 195.2 285.696a64 64 0 0 1 0-90.496z" style="--darkreader-inline-fill: var(--darkreader-background-000000, #3c3c3b);" data-darkreader-inline-fill=""/>
</g>
<g id="SVGRepo_iconCarrier">
<path fill="#3c3c3b" d="M195.2 195.2a64 64 0 0 1 90.496 0L512 421.504 738.304 195.2a64 64 0 0 1 90.496 90.496L602.496 512 828.8 738.304a64 64 0 0 1-90.496 90.496L512 602.496 285.696 828.8a64 64 0 0 1-90.496-90.496L421.504 512 195.2 285.696a64 64 0 0 1 0-90.496z" style="--darkreader-inline-fill: var(--darkreader-background-000000, #3c3c3b);" data-darkreader-inline-fill=""/>
</g>
</svg>